# xmcd CD Database Entry
#
# Track frame offsets:
# 150
# 17601
# 36565
# 66311
# 84926
# 102549
# 119828
# 126103
# 143592
# 153459
# 170494
# 187998
# 208159
# 223293
# 253881
# 264974
# 279209
# 297046
#
# Disc length: 4190 seconds
#
# Revision: 1
# Processed by: cddbd v1.4b41PL1 Copyright (c) Steve Scherf et al.
# Submitted via: tcd 2.0b
#
DISCID=15105c12
DTITLE=Mitten ins Ohr - Eine Reise durch die Krautrock-Szene
DYEAR=1900
DGENRE=
TTITLE0=Witthueser and Westrupp - Orienta
TTITLE1=Jerry Berkers - Es wird morgen vorbei sein
TTITLE2=Hoelderlin - Requiem fuer einen Wicht
TTITLE3=Limbus 4 - Dhyana
TTITLE4=Gila - Aggression
TTITLE5=Wallenstein - Relics of Past
TTITLE6=Floh De Cologne - Hey Hallo Stift
TTITLE7=Guru Guru - Electric Junk
TTITLE8=Limbus 4 - Heiku
TTITLE9=Popol Vuh - Aquirre I
TTITLE10=Mythos - Oriental Journey
TTITLE11=Broeselmaschine - Lassie
TTITLE12=Emtidi - Traeume
TTITLE13=Witthueser and Westrupp - Die Schluesselblume
TTITLE14=Floh De Cologne - Wir werden immer mehr
TTITLE15=Annexus Quam - Osmose
TTITLE16=Anima - How to dream
TTITLE17=Guru Guru - Der LSD-Marsch
EXTD=
EXTT0=
EXTT1=
EXTT2=
EXTT3=
EXTT4=
EXTT5=
EXTT6=
EXTT7=
EXTT8=
EXTT9=
EXTT10=
EXTT11=
EXTT12=
EXTT13=
EXTT14=
EXTT15=
EXTT16=
EXTT17=
PLAYORDER=
